<?xml version="1.0" encoding="utf-8"?>
<!-- Generator: Adobe Illustrator 25.3.1, SVG Export Plug-In . SVG Version: 6.00 Build 0)  -->
<svg version="1.1" id="_x3C_Ebene_x3E_" xmlns="http://www.w3.org/2000/svg" xmlns:xlink="http://www.w3.org/1999/xlink" x="0px"
	 y="0px" viewBox="0 0 489.9707947 153.2494965" style="enable-background:new 0 0 489.9707947 153.2494965;" xml:space="preserve">
<style type="text/css">
	.st0{fill:#FFFFFF;}
	.st1{fill-rule:evenodd;clip-rule:evenodd;fill:#FFFFFF;}
</style>
<path class="st0" d="M0,92.4779968c0-14.0907974,11.4218998-25.5121994,25.5118008-25.5121994
	c14.0902996,0,25.5116978,11.421402,25.5116978,25.5121994c0,14.0898895-11.4213982,25.5117035-25.5116978,25.5117035
	C11.4218998,117.9897003,0,106.5678864,0,92.4779968L0,92.4779968z"/>
<path class="st0" d="M67.4648972,0v117.2416992h21.3945007V17.8388004c0,0,33.069397,0,49.0048904,0v99.4029007h21.4624023
	V17.8388004c14.1304016,0,26.1562958,0,32.5933075,0c11.0067902,0,18.7782898,6.6044998,18.7782898,20.9301968v78.472702h21.4131165
	c0-30.7734985,0-57.612812,0-84.4024048C232.1114044,16.8729992,223.8754883,0,202.698288,0H67.4648972L67.4648972,0z"/>
<path class="st0" d="M274.967804,0c-23.1094055,0-30.1133118,15.3485994-30.1133118,32.5360985
	c0,18.3604012,7.6289062,33.8261986,28.6289062,33.8261986c18.9365845,0,36.6796875,0,50.9288025,0
	c15.6034851,0,15.6034851,11.9941025,15.6034851,17.4515915c0,5.0859985,0,15.5528107-15.2118835,15.5528107
	c-12.156311,0-77.9493103,0-77.9493103,0s0,12.8827972,0,17.875h86.905304c21.6737976,0,27.8808899-12.732399,27.8808899-33.2695999
	c0-24.4692116-7.9902954-35.4360008-26.5116882-35.4360008c-21.8106079,0-37.1133118,0-54.9893188,0
	c-13.875,0-13.875-9.375-13.875-15.625c0-4.875,1.3760071-15.072298,16.2510071-15.072298c15.6239929,0,75.125,0,75.125,0
	c0-7.177701,0-11.0527,0-17.8388004H274.967804L274.967804,0z"/>
<path class="st1" d="M417.25,0c-19.0830078,0-26.1835022,3.0477998-31.4169006,7.2206998
	c-5.710022,4.5541873-10.9405212,10.3353996-11.0498047,29.9926987v20.9414024v21.3852005
	c0,20.8266983,5.782196,26.6528854,11.695282,31.6215973c3.9824219,2.8417969,10.5742188,6.080101,30.8203125,6.080101h51.342804
	c0,0,0.0272827,3.5820007,0.0107117,4.531189c-0.0107117,8.847702-1.7070007,12.7089996-11.8457031,12.7089996h-66.9268188
	v18.7676086h73.7626953c19.8887024,0,26.3282166-8.8516083,26.3282166-25.5702972V0H417.25z M468.6524048,99.3862h-44.8945312
	c-13.2685852,0.0780945-26.7245789,1-27.0732727-16.1855011c-0.0146179-0.7109985-0.0713196-7.0391006,0-25.4194984
	c0.0605774-15.5883141-0.0830078-19.3134003,0-20.9267006c0.7411804-14.397501,6.0546875-19.5209999,28.0214844-18.9956131
	c1.2881165,0.0312138,43.9463196,0,43.9463196,0V99.3862z"/>
</svg>
